HIERARCHY
ROOT hip
{
	OFFSET 0.000000 0.000000 0.000000
	CHANNELS 6 Xposition Yposition Zposition Xrotation Zrotation Yrotation 
	JOINT abdomen
	{
		OFFSET 0.000000 3.422050 0.000000
		CHANNELS 3 Xrotation Zrotation Yrotation 
		JOINT chest
		{
			OFFSET 0.000000 8.486693 -0.684411
			CHANNELS 3 Xrotation Zrotation Yrotation 
			JOINT neck
			{
				OFFSET 0.000000 10.266162 -0.273764
				CHANNELS 3 Xrotation Zrotation Yrotation 
				JOINT head
				{
					OFFSET 0.000000 3.148285 0.000000
					CHANNELS 3 Xrotation Zrotation Yrotation 
					End Site
					{
						OFFSET 0.000000 3.148289 0.000000
					}
				}
			}
			JOINT lCollar
			{
				OFFSET 3.422053 6.707223 -0.821293
				CHANNELS 3 Yrotation Zrotation Xrotation 
				JOINT lShldr
				{
					OFFSET 3.285171 0.000000 0.000000
					CHANNELS 3 Zrotation Yrotation Xrotation 
					JOINT lForeArm
					{
						OFFSET 10.129278 0.000000 0.000000
						CHANNELS 3 Yrotation Zrotation Xrotation 
						JOINT lHand
						{
							OFFSET 8.486692 0.000000 0.000000
							CHANNELS 3 Zrotation Yrotation Xrotation 
							End Site
							{
								OFFSET 4.106464 0.000000 0.000000
							}
						}
					}
				}
			}
			JOINT rCollar
			{
				OFFSET -3.558935 6.707223 -0.821293
				CHANNELS 3 Yrotation Zrotation Xrotation 
				JOINT rShldr
				{
					OFFSET -3.148289 0.000000 0.000000
					CHANNELS 3 Zrotation Yrotation Xrotation 
					JOINT rForeArm
					{
						OFFSET -10.266159 0.000000 0.000000
						CHANNELS 3 Yrotation Zrotation Xrotation 
						JOINT rHand
						{
							OFFSET -8.349810 0.000000 0.000000
							CHANNELS 3 Zrotation Yrotation Xrotation 
							End Site
							{
								OFFSET -4.106464 0.000000 0.000000
							}
						}
					}
				}
			}
		}
	}
	JOINT lThigh
	{
		OFFSET 5.338403 -1.642589 1.368821
		CHANNELS 3 Xrotation Zrotation Yrotation 
		JOINT lShin
		{
			OFFSET -2.053232 -20.121670 0.000000
			CHANNELS 3 Xrotation Zrotation Yrotation 
			JOINT lFoot
			{
				OFFSET 0.000000 -19.300380 -1.231939
				CHANNELS 3 Xrotation Yrotation Zrotation 
				End Site
				{
					OFFSET 0.000000 -2.463878 4.653993
				}
			}
		}
	}
	JOINT rThigh
	{
		OFFSET -5.338403 -1.642589 1.368821
		CHANNELS 3 Xrotation Zrotation Yrotation 
		JOINT rShin
		{
			OFFSET 2.053232 -20.121670 0.000000
			CHANNELS 3 Xrotation Zrotation Yrotation 
			JOINT rFoot
			{
				OFFSET 0.000000 -19.300380 -1.231939
				CHANNELS 3 Xrotation Yrotation Zrotation 
				End Site
				{
					OFFSET 0.000000 -2.463878 4.653993
				}
			}
		}
	}
}
MOTION
Frames: 13
Frame Time: 0.033264
0.820027 25.208694 0.186529 14.751817 0.000000 0.000000 1.331927 0.379718 -0.422674 31.855471 -0.654160 -2.016605 -9.509538 10.486691 -0.209902 -2.560714 0.000000 0.000000 -27.137180 -3.614255 -29.919527 -44.098839 -10.179928 -1.895205 -59.022022 -51.392090 -17.962843 68.515579 21.259474 23.748264 26.187929 2.622433 -29.918657 45.078259 11.111377 -1.706763 54.989155 50.036858 -14.893947 -60.597488 -19.143930 20.328989 -14.506183 10.916254 10.053183 87.804779 1.330904 -0.554779 60.201984 8.931102 -14.975943 -14.525253 -11.040216 -10.166186 87.810410 -1.453972 0.627488 61.196049 -8.762215 15.061236 
0.820027 25.208694 0.111736 15.506025 0.000000 0.000000 0.450218 0.379683 -0.422702 31.379440 -0.654152 -2.016664 -9.942549 10.417048 -0.213350 -3.763175 0.000000 0.000000 -27.259930 -3.833102 -29.743982 -44.098839 -10.179928 -1.895205 -58.244213 -51.146332 -17.364666 68.052162 21.452139 23.570667 26.303661 2.837843 -29.741058 45.078259 11.111377 -1.706763 54.211422 49.754307 -14.309148 -60.136040 -19.294857 20.196169 -15.546562 10.969898 10.069193 88.123993 1.353616 -0.550544 60.201984 8.931102 -14.975943 -15.566123 -11.093197 -10.180361 88.129913 -1.476209 0.622708 61.196049 -8.762215 15.061236 
0.820027 25.208694 0.036943 16.260101 0.000000 0.000000 -0.431278 0.379647 -0.422730 30.903454 -0.654144 -2.016722 -10.375536 10.347370 -0.216262 -4.967237 0.000000 0.000000 -27.382038 -4.052319 -29.568869 -44.098839 -10.179928 -1.895205 -57.474731 -50.895554 -16.775074 67.587502 21.643452 23.391178 26.418739 3.053604 -29.563866 45.078259 11.111377 -1.706763 53.442799 49.466751 -13.733772 -59.673840 -19.444759 20.061956 -16.586767 11.023803 10.084207 88.443207 1.376305 -0.546182 60.201984 8.931102 -14.975943 -16.606813 -11.146401 -10.193546 88.449394 -1.498418 0.617803 61.196049 -8.762215 15.061236 
0.820027 25.208694 -0.037850 17.013990 0.000000 0.000000 -1.312463 0.379611 -0.422757 30.427517 -0.654136 -2.016781 -10.808488 10.277665 -0.218639 -6.172632 0.000000 0.000000 -27.503506 -4.271897 -29.394188 -44.098839 -10.179928 -1.895205 -56.713634 -50.639896 -16.194113 67.121651 21.833378 23.209806 26.533176 3.269710 -29.387083 45.078259 11.111377 -1.706763 52.683235 49.174267 -13.167808 -59.210861 -19.593615 19.926344 -17.626631 11.077935 10.098216 88.762405 1.398967 -0.541695 60.201984 8.931102 -14.975943 -17.647167 -11.199807 -10.205741 88.768883 -1.520600 0.612776 61.196049 -8.762215 15.061236 
0.820027 25.208694 -0.112643 17.767614 0.000000 0.000000 -2.193231 0.379574 -0.422784 29.951637 -0.654129 -2.016840 -11.241392 10.207933 -0.220481 -7.379103 0.000000 0.000000 -27.624331 -4.491829 -29.219933 -44.098839 -10.179928 -1.895205 -55.960892 -50.379425 -15.621783 66.654594 22.021902 23.026558 26.646952 3.486153 -29.210697 45.078259 11.111377 -1.706763 51.932732 48.877010 -12.611239 -58.747173 -19.741421 19.789360 -18.665983 11.132272 10.111216 89.081604 1.421603 -0.537081 60.201984 8.931102 -14.975943 -18.687010 -11.253386 -10.216943 89.088341 -1.542750 0.607625 61.196049 -8.762215 15.061236 
0.820027 25.208694 -0.187436 18.520906 0.000000 0.000000 -3.073477 0.379537 -0.422809 29.475842 -0.654122 -2.016898 -11.674238 10.138185 -0.221786 -8.586372 0.000000 0.000000 -27.744507 -4.712108 -29.046097 -44.098839 -10.179928 -1.895205 -55.216572 -50.114304 -15.058124 66.186340 22.209002 22.841440 26.760078 3.702929 -29.034714 45.078259 11.111377 -1.706763 51.191288 48.575104 -12.064048 -58.282730 -19.888147 19.650995 -19.704653 11.186788 10.123204 89.400764 1.444211 -0.532342 60.201984 8.931102 -14.975943 -19.726175 -11.307110 -10.227143 89.407799 -1.564871 0.602351 61.196049 -8.762215 15.061236 
0.820027 25.208694 -0.262229 19.273811 0.000000 0.000000 -3.953101 0.379500 -0.422835 29.000151 -0.654116 -2.016957 -12.107012 10.068424 -0.222557 -9.794182 0.000000 0.000000 -27.864046 -4.932733 -28.872692 -44.098839 -10.179928 -1.895205 -54.480656 -49.844616 -14.503126 65.716904 22.394651 22.654467 26.872564 3.920035 -28.859138 45.078259 11.111377 -1.706763 50.458851 48.268684 -11.526200 -57.817574 -20.033781 19.511269 -20.742477 11.241450 10.134171 89.719902 1.466790 -0.527477 60.201992 8.931102 -14.975945 -20.764490 -11.360953 -10.236343 89.727234 -1.586960 0.596954 61.196049 -8.762215 15.061236 
0.820027 25.208694 -0.337022 20.026264 0.000000 0.000000 -4.831998 0.379463 -0.422860 28.524567 -0.654111 -2.017016 -12.539703 9.998657 -0.222792 -11.002255 0.000000 0.000000 -27.982935 -5.153692 -28.699697 -44.098839 -10.179928 -1.895205 -53.753147 -49.570492 -13.956787 65.246300 22.578831 22.465647 26.984400 4.137458 -28.683954 45.078259 11.111377 -1.706763 49.735386 47.957855 -10.997650 -57.351719 -20.178312 19.370192 -21.779284 11.296238 10.144119 90.039009 1.489339 -0.522487 60.201984 8.931102 -14.975943 -21.801792 -11.414889 -10.244538 90.046600 -1.609015 0.591434 61.196049 -8.762215 15.061236 
0.820027 25.208694 -0.411814 20.778191 0.000000 0.000000 -5.710065 0.379424 -0.422884 28.049124 -0.654105 -2.017074 -12.972305 9.928891 -0.222492 -12.210330 0.000000 0.000000 -28.101194 -5.374982 -28.527134 -44.098839 -10.179928 -1.895205 -53.034012 -49.292019 -13.419085 64.774544 22.761528 22.274998 27.095583 4.355198 -28.509171 45.078259 11.111377 -1.706763 49.020824 47.642754 -10.478350 -56.885178 -20.321730 19.227776 -22.814909 11.351121 10.153047 90.358086 1.511858 -0.517372 60.201992 8.931102 -14.975945 -22.837906 -11.468887 -10.251725 90.365974 -1.631037 0.585793 61.196049 -8.762215 15.061236 
0.820027 25.208694 -0.486607 21.529543 0.000000 0.000000 -6.587202 0.379386 -0.422907 27.573816 -0.654101 -2.017133 -13.404800 9.859131 -0.221658 -13.418142 0.000000 0.000000 -28.218800 -5.596596 -28.354980 -44.098839 -10.179928 -1.895205 -52.323231 -49.009308 -12.890001 64.301636 22.942709 22.082521 27.206123 4.573247 -28.334780 45.078259 11.111377 -1.706763 48.315132 47.323490 -9.968240 -56.417965 -20.464010 19.084026 -23.849188 11.406071 10.160954 90.677132 1.534344 -0.512132 60.201984 8.931102 -14.975943 -23.872677 -11.522925 -10.257912 90.685272 -1.653023 0.580029 61.196049 -8.762215 15.061236 
0.820027 25.208694 -0.561400 22.280233 0.000000 0.000000 -7.463304 0.379348 -0.422930 27.098679 -0.654097 -2.017192 -13.837183 9.789385 -0.220289 -14.625411 0.000000 0.000000 -28.335766 -5.818528 -28.183249 -44.098839 -10.179928 -1.895205 -51.620811 -48.722500 -12.369519 63.827606 23.122356 21.888237 27.316011 4.791598 -28.160780 45.078259 11.111377 -1.706763 47.618256 47.000210 -9.467264 -55.950092 -20.605141 18.938959 -24.881952 11.461061 10.167833 90.996124 1.556797 -0.506768 60.201992 8.931102 -14.975945 -24.905931 -11.576976 -10.263096 91.004570 -1.674975 0.574144 61.196049 -8.762215 15.061236 
0.820027 25.208694 -0.636193 23.030224 0.000000 0.000000 -8.338276 0.379309 -0.422953 26.623722 -0.654093 -2.017251 -14.269435 9.719655 -0.218387 -15.831877 0.000000 0.000000 -28.452095 -6.040771 -28.011927 -44.098839 -10.179928 -1.895205 -50.926682 -48.431675 -11.857587 63.352436 23.300444 21.692142 27.425253 5.010247 -27.987169 45.078259 11.111377 -1.706763 46.930088 46.673000 -8.975344 -55.481552 -20.745098 18.792572 -25.913042 11.516062 10.173694 91.315071 1.579216 -0.501280 60.201984 8.931102 -14.975943 -25.937510 -11.631010 -10.267274 91.323784 -1.696889 0.568137 61.196049 -8.762215 15.061236 
0.820027 25.208694 -0.710986 23.779434 0.000000 0.000000 -9.212016 0.379270 -0.422974 26.148954 -0.654090 -2.017310 -14.701552 9.649947 -0.215952 -17.037275 0.000000 0.000000 -28.567783 -6.263319 -27.841021 -44.098839 -10.179928 -1.895205 -50.240814 -48.136959 -11.354171 62.876186 23.476967 21.494278 27.533852 5.229187 -27.813957 45.078259 11.111377 -1.706763 46.250584 46.342003 -8.492412 -55.012409 -20.883890 18.644901 -26.942295 11.571050 10.178535 91.633965 1.601601 -0.495668 60.201992 8.931102 -14.975945 -26.967255 -11.685002 -10.270455 91.642960 -1.718765 0.562010 61.196049 -8.762215 15.061236 
